<?xml version="1.0" encoding="utf-8"?>
<!-- Generator: Adobe Illustrator 15.0.0, SVG Export Plug-In . SVG Version: 6.00 Build 0)  -->
<!DOCTYPE svg PUBLIC "-//W3C//DTD SVG 1.1//EN" "http://www.w3.org/Graphics/SVG/1.1/DTD/svg11.dtd">
<svg version="1.1" id="Layer_1" xmlns="http://www.w3.org/2000/svg" xmlns:xlink="http://www.w3.org/1999/xlink" x="0px" y="0px"
	 width="30px" height="29.914px" viewBox="132.992 131.822 30 29.914" enable-background="new 132.992 131.822 30 29.914"
	 xml:space="preserve">
<title>search icon</title>
<g>
	<title>Layer 1</title>
	<path id="path12423" fill="#8C8C8C" d="M136.365,135.19c-4.49,4.49-4.501,11.845-0.011,16.335
		c3.804,3.804,9.671,4.384,14.103,1.739l7.921,7.703c1.091,1.058,2.811,1.019,3.852-0.088s1.014-2.848-0.076-3.905l-7.802-7.561
		c2.735-4.446,2.181-10.381-1.663-14.224C148.2,130.7,140.855,130.7,136.365,135.19L136.365,135.19L136.365,135.19z
		 M139.659,138.483c2.708-2.708,7.029-2.708,9.738,0c2.708,2.708,2.708,7.03,0,9.738c-2.708,2.709-7.029,2.709-9.738,0
		C136.95,145.513,136.95,141.191,139.659,138.483z"/>
</g>
</svg>
